<?xml version="1.0" encoding="UTF-8"?>
<svg version="1.1" xmlns="http://www.w3.org/2000/svg" width="230" height="322">
<path d="M0 0 C75.9 0 151.8 0 230 0 C230 106.26 230 212.52 230 322 C154.1 322 78.2 322 0 322 C0 215.74 0 109.48 0 0 Z " fill="#0B879F" transform="translate(0,0)"/>
<path d="M0 0 C0 65.34 0 130.68 0 198 C-75.9 198 -151.8 198 -230 198 C-230 175.89 -230 153.78 -230 131 C-224.06 131.66 -218.12 132.32 -212 133 C-211.67 141.91 -211.34 150.82 -211 160 C-207.7 160.33 -204.4 160.66 -201 161 C-201 155.72 -201 150.44 -201 145 C-198.81375 144.9175 -196.6275 144.835 -194.375 144.75 C-188.56346463 144.32819501 -185.2318116 144.00908467 -181 140 C-178.67722584 137.3908613 -178.67722584 137.3908613 -177 135 C-177.21044662 144.68054461 -177.21044662 144.68054461 -180.4375 148.5625 C-183 151 -183 151 -185 152 C-181.7 152.33 -178.4 152.66 -175 153 C-174.505 156.465 -174.505 156.465 -174 160 C-170.08977956 160.14522352 -166.17946259 160.28748638 -162.26904297 160.42724609 C-160.30040145 160.49818384 -158.33183985 160.57132857 -156.36328125 160.64453125 C-148.56936358 160.92147249 -140.79880412 161.04828981 -133 161 C-133 156.71 -133 152.42 -133 148 C-131.35 147.67 -129.7 147.34 -128 147 C-128 151.62 -128 156.24 -128 161 C-124.7 160.67 -121.4 160.34 -118 160 C-117.67 152.41 -117.34 144.82 -117 137 C-114.47907509 139.52092491 -113.04728041 141.36734109 -111.30078125 144.37890625 C-110.81416016 145.21744141 -110.32753906 146.05597656 -109.82617188 146.91992188 C-109.32666016 147.79197266 -108.82714844 148.66402344 -108.3125 149.5625 C-107.80138672 150.43841797 -107.29027344 151.31433594 -106.76367188 152.21679688 C-103 158.74417974 -103 158.74417974 -103 161 C-99.37 161 -95.74 161 -92 161 C-92 150.44 -92 139.88 -92 129 C-90.68 128.34 -89.36 127.68 -88 127 C-88 138.22 -88 149.44 -88 161 C-84.7 160.67 -81.4 160.34 -78 160 C-77.97421875 159.08476562 -77.9484375 158.16953125 -77.921875 157.2265625 C-77.86515625 156.03804687 -77.8084375 154.84953125 -77.75 153.625 C-77.70359375 152.44164062 -77.6571875 151.25828125 -77.609375 150.0390625 C-77 147 -77 147 -74.953125 145.5859375 C-73.98632812 145.29589844 -73.98632812 145.29589844 -73 145 C-71.49445366 147.28819146 -69.99542957 149.58021169 -68.5 151.875 C-67.85611328 152.85146484 -67.85611328 152.85146484 -67.19921875 153.84765625 C-64 158.7734375 -64 158.7734375 -64 161 C-60.04 161 -56.08 161 -52 161 C-54.85269043 155.02293434 -58.10298891 149.52316378 -61.75 144 C-62.25660156 143.22527344 -62.76320312 142.45054687 -63.28515625 141.65234375 C-64.51963549 139.7656868 -65.75794226 137.88167262 -67 136 C-62.30059879 128.7552182 -57.22922407 121.86771428 -52 115 C-56.6819995 114.41195873 -60.50447776 114.48694397 -65 116 C-69.62296987 120.18339117 -72.7033881 125.77197616 -76 131 C-76.33 131 -76.66 131 -77 131 C-77.10853983 128.77191841 -77.18583307 126.54230068 -77.25 124.3125 C-77.29640625 123.07113281 -77.3428125 121.82976562 -77.390625 120.55078125 C-76.93889287 116.4445362 -75.93706704 114.84460381 -73 112 C-72.34 112 -71.68 112 -71 112 C-70.59587891 111.11054688 -70.59587891 111.11054688 -70.18359375 110.203125 C-69.00010743 108.00019996 -67.78302471 106.55045129 -66.0625 104.75 C-60.34058562 98.36970635 -55.76345333 91.10290082 -51 84 C-50.36191406 83.05640625 -49.72382813 82.1128125 -49.06640625 81.140625 C-46.60554997 77.48309297 -44.23579452 73.80085068 -42 70 C-41.01 68.515 -41.01 68.515 -40 67 C-39.60612212 64.67612053 -39.26513915 62.34206251 -39 60 C-40.96756452 60.03122943 -40.96756452 60.03122943 -43 61 C-44.23757877 63.96260526 -44.23757877 63.96260526 -45 67 C-46 68 -46 68 -48.13305664 68.11352539 C-49.04949951 68.10828857 -49.96594238 68.10305176 -50.91015625 68.09765625 C-51.89951172 68.09443359 -52.88886719 68.09121094 -53.90820312 68.08789062 C-54.94912109 68.07951172 -55.99003906 68.07113281 -57.0625 68.0625 C-58.10728516 68.05798828 -59.15207031 68.05347656 -60.22851562 68.04882812 C-62.8190666 68.03699913 -65.40950559 68.02051689 -68 68 C-62.90875912 60.19343066 -62.90875912 60.19343066 -60.0546875 59.5859375 C-58.03645833 59.390625 -56.01822917 59.1953125 -54 59 C-54 58.071875 -54 57.14375 -54 56.1875 C-54 50.21182752 -53.18101575 48.47965973 -49 44 C-48.34 44 -47.68 44 -47 44 C-46.75765625 44.63808594 -46.5153125 45.27617187 -46.265625 45.93359375 C-45.93046875 46.75988281 -45.5953125 47.58617187 -45.25 48.4375 C-44.92515625 49.26121094 -44.6003125 50.08492187 -44.265625 50.93359375 C-43.18068448 53.1849879 -43.18068448 53.1849879 -40.859375 53.78515625 C-40.24578125 53.85605469 -39.6321875 53.92695313 -39 54 C-39.26554688 53.34773438 -39.53109375 52.69546875 -39.8046875 52.0234375 C-41.67827997 47.38732183 -43.49315006 42.77169146 -45 38 C-44.319375 37.34 -43.63875 36.68 -42.9375 36 C-40.01827866 33.08909553 -37.33531934 29.99175145 -34.6484375 26.8671875 C-31.6369509 23.45607235 -31.6369509 23.45607235 -30 22 C-29.34 22 -28.68 22 -28 22 C-27.80277344 21.44957031 -27.60554687 20.89914063 -27.40234375 20.33203125 C-25.41672671 17.03004413 -22.58178575 14.98991064 -19.5625 12.6875 C-18.94157471 12.20692139 -18.32064941 11.72634277 -17.6809082 11.23120117 C-2.9849821 0 -2.9849821 0 0 0 Z " fill="#016FA2" transform="translate(230,124)"/>
<path d="M0 0 C1 3 1 3 0.15478516 4.80249023 C-0.52124756 5.79551147 -0.52124756 5.79551147 -1.2109375 6.80859375 C-1.70964355 7.55004639 -2.20834961 8.29149902 -2.72216797 9.05541992 C-3.26760254 9.84150635 -3.81303711 10.62759277 -4.375 11.4375 C-4.92430176 12.24356689 -5.47360352 13.04963379 -6.03955078 13.88012695 C-21.85477319 36.9361367 -21.85477319 36.9361367 -28.875 42.125 C-32.38492189 46.87371786 -31.3759279 52.2942498 -31 58 C-30.35675781 56.9171875 -29.71351563 55.834375 -29.05078125 54.71875 C-21.95683124 43.53770686 -21.95683124 43.53770686 -16.375 42.00390625 C-13.13125341 42.05725735 -10.16907026 42.31983389 -7 43 C-8.35216838 45.88387779 -9.89752336 48.35417975 -11.8203125 50.890625 C-12.62275391 51.95410156 -12.62275391 51.95410156 -13.44140625 53.0390625 C-13.99699219 53.76867187 -14.55257812 54.49828125 -15.125 55.25 C-15.68832031 55.99507812 -16.25164062 56.74015625 -16.83203125 57.5078125 C-18.21848254 59.34074811 -19.60787768 61.17137013 -21 63 C-16.954095 70.04651539 -12.8001228 76.96509093 -8.28515625 83.72265625 C-7 86 -7 86 -7 89 C-11.30432883 89.98322232 -14.74313276 90.29689504 -19 89 C-23.10386634 84.83815774 -25.53571858 79.22726362 -28 74 C-29.485 74.495 -29.485 74.495 -31 75 C-31.06058594 75.92683594 -31.12117188 76.85367188 -31.18359375 77.80859375 C-31.30927734 79.60490234 -31.30927734 79.60490234 -31.4375 81.4375 C-31.55931641 83.22994141 -31.55931641 83.22994141 -31.68359375 85.05859375 C-32 88 -32 88 -33 89 C-36.3 89 -39.6 89 -43 89 C-43 77.78 -43 66.56 -43 55 C-43.99 55.66 -44.98 56.32 -46 57 C-46.33814748 59.47491114 -46.48872339 61.71351688 -46.51171875 64.1953125 C-46.52966995 64.90275604 -46.54762115 65.61019958 -46.56611633 66.33908081 C-46.62034442 68.60099303 -46.65415316 70.86269284 -46.6875 73.125 C-46.72066226 74.65758173 -46.7551509 76.19013538 -46.79101562 77.72265625 C-46.87607727 81.48161779 -46.94282753 85.240515 -47 89 C-50.63 89 -54.26 89 -58 89 C-59.03060547 87.13794922 -59.03060547 87.13794922 -60.08203125 85.23828125 C-60.99214197 83.59632893 -61.90230075 81.95440324 -62.8125 80.3125 C-63.26431641 79.49587891 -63.71613281 78.67925781 -64.18164062 77.83789062 C-66.39245343 73.85197264 -68.61724171 69.88682498 -71 66 C-71.03758423 66.99181274 -71.03758423 66.99181274 -71.07592773 68.00366211 C-71.19153102 70.98182305 -71.31441754 73.9596392 -71.4375 76.9375 C-71.47681641 77.97841797 -71.51613281 79.01933594 -71.55664062 80.09179688 C-71.59853516 81.08115234 -71.64042969 82.07050781 -71.68359375 83.08984375 C-71.72025146 84.00628662 -71.75690918 84.92272949 -71.79467773 85.86694336 C-72 88 -72 88 -73 89 C-76.33618231 89.14257189 -79.65975606 89.04228157 -83 89 C-83.33 84.71 -83.66 80.42 -84 76 C-85.32 76 -86.64 76 -88 76 C-88 80.29 -88 84.58 -88 89 C-97.33565044 89.87603443 -106.38693797 90.02006591 -115.75 89.625 C-117.0184375 89.58117187 -118.286875 89.53734375 -119.59375 89.4921875 C-128.8659668 89.1340332 -128.8659668 89.1340332 -130 88 C-130.0928726 86.58774954 -130.11746772 85.17091066 -130.11352539 83.75561523 C-130.11344986 82.85475693 -130.11337433 81.95389862 -130.11329651 81.02574158 C-130.10813522 80.04658279 -130.10297394 79.06742401 -130.09765625 78.05859375 C-130.0962413 77.06118668 -130.09482635 76.0637796 -130.09336853 75.03614807 C-130.08775114 71.83656876 -130.07519571 68.63705831 -130.0625 65.4375 C-130.05748724 63.27408955 -130.05292395 61.11067801 -130.04882812 58.94726562 C-130.03777606 53.63148371 -130.02049979 48.31575354 -130 43 C-126.37 43 -122.74 43 -119 43 C-119 43.66 -119 44.32 -119 45 C-106.07191418 41.01748581 -93.79274106 36.67457172 -82 30 C-81.34193359 29.63036133 -80.68386719 29.26072266 -80.00585938 28.87988281 C-69.93037768 23.13150413 -61.22133454 16.33131866 -52.69067383 8.48876953 C-50.52573599 6.58237373 -48.25254609 4.80203688 -46 3 C-76.03 2.67 -106.06 2.34 -137 2 C-137 1.67 -137 1.34 -137 1 C-91.79 0.67 -46.58 0.34 0 0 Z " fill="#128EA4" transform="translate(185,196)"/>
<path d="M0 0 C0.78375 0.02255859 1.5675 0.04511719 2.375 0.06835938 C4.2925026 0.12681982 6.2090106 0.21648717 8.125 0.3125 C-0.05939839 12.13440879 -10.64496971 21.47719176 -22.11816406 30.00439453 C-23.29043314 30.87724302 -24.45649642 31.75848786 -25.61621094 32.64794922 C-27.29243775 33.93153347 -28.98598699 35.1877027 -30.6875 36.4375 C-32.15123047 37.52417969 -32.15123047 37.52417969 -33.64453125 38.6328125 C-36.875 40.3125 -36.875 40.3125 -45.875 41.3125 C-46.205 51.8725 -46.535 62.4325 -46.875 73.3125 C-49.35 73.8075 -49.35 73.8075 -51.875 74.3125 C-51.875 78.6025 -51.875 82.8925 -51.875 87.3125 C-61.21065044 88.18853443 -70.26193797 88.33256591 -79.625 87.9375 C-80.8934375 87.89367187 -82.161875 87.84984375 -83.46875 87.8046875 C-92.7409668 87.4465332 -92.7409668 87.4465332 -93.875 86.3125 C-93.9678726 84.90024954 -93.99246772 83.48341066 -93.98852539 82.06811523 C-93.98844986 81.16725693 -93.98837433 80.26639862 -93.98829651 79.33824158 C-93.98313522 78.35908279 -93.97797394 77.37992401 -93.97265625 76.37109375 C-93.9712413 75.37368668 -93.96982635 74.3762796 -93.96836853 73.34864807 C-93.96275114 70.14906876 -93.95019571 66.94955831 -93.9375 63.75 C-93.93248724 61.58658955 -93.92792395 59.42317801 -93.92382812 57.25976562 C-93.91277606 51.94398371 -93.89549979 46.62825354 -93.875 41.3125 C-90.245 41.3125 -86.615 41.3125 -82.875 41.3125 C-82.875 41.9725 -82.875 42.6325 -82.875 43.3125 C-69.94691418 39.32998581 -57.66774106 34.98707172 -45.875 28.3125 C-45.21693359 27.94286133 -44.55886719 27.57322266 -43.88085938 27.19238281 C-34.45253934 21.81323017 -26.22898798 15.56385054 -18.1796875 8.29296875 C-17.34026611 7.54478882 -17.34026611 7.54478882 -16.48388672 6.78149414 C-15.43706846 5.82569665 -14.41560676 4.8411071 -13.42626953 3.82592773 C-9.13256849 -0.33033372 -5.6257012 -0.30989032 0 0 Z " fill="#0A7AA8" transform="translate(148.875,197.6875)"/>
<path d="M0 0 C6.16167658 3.47361449 8.87923351 8.79135591 10.75 15.4375 C11.64194854 23.61023775 11.17180233 31.33698264 6.75 38.4375 C3.41491834 42.07712141 0.01194272 45.1843931 -5.0078125 45.74609375 C-11.70666008 46.00254615 -16.56915148 45.97592654 -21.66015625 41.3046875 C-27.72563095 34.18110787 -28.00624768 26.42821867 -27.62890625 17.4140625 C-26.95855069 10.37878456 -24.85125254 6.68238578 -19.6875 2 C-13.95639087 -2.68444778 -6.68147412 -2.96672665 0 0 Z " fill="#F1F3F4" transform="translate(204.25,239.5625)"/>
<path d="M0 0 C0.20521899 3.18653222 0.32822933 6.37135052 0.4375 9.5625 C0.52547852 10.90538086 0.52547852 10.90538086 0.61523438 12.27539062 C0.78484275 18.89011743 0.78484275 18.89011743 -1.47729492 22.08911133 C-3.24344723 23.84547886 -5.08241372 25.41294369 -7 27 C-8.69631597 28.82678323 -10.31038909 30.70573315 -11.93359375 32.59765625 C-13.51375531 34.43470608 -15.11031123 36.25017517 -16.72265625 38.05859375 C-22.89365739 45.04457554 -28.43275279 52.20374956 -33.52246094 60.02148438 C-34.63583121 61.71206467 -35.81217003 63.36087979 -37 65 C-37.66 65 -38.32 65 -39 65 C-39 63.35 -39 61.7 -39 60 C-40.96756452 60.03122943 -40.96756452 60.03122943 -43 61 C-44.23757877 63.96260526 -44.23757877 63.96260526 -45 67 C-46 68 -46 68 -48.13305664 68.11352539 C-49.04949951 68.10828857 -49.96594238 68.10305176 -50.91015625 68.09765625 C-51.89951172 68.09443359 -52.88886719 68.09121094 -53.90820312 68.08789062 C-54.94912109 68.07951172 -55.99003906 68.07113281 -57.0625 68.0625 C-58.10728516 68.05798828 -59.15207031 68.05347656 -60.22851562 68.04882812 C-62.8190666 68.03699913 -65.40950559 68.02051689 -68 68 C-62.90875912 60.19343066 -62.90875912 60.19343066 -60.0546875 59.5859375 C-58.03645833 59.390625 -56.01822917 59.1953125 -54 59 C-54 58.071875 -54 57.14375 -54 56.1875 C-54 50.21182752 -53.18101575 48.47965973 -49 44 C-48.34 44 -47.68 44 -47 44 C-46.63648438 44.95712891 -46.63648438 44.95712891 -46.265625 45.93359375 C-45.93046875 46.75988281 -45.5953125 47.58617187 -45.25 48.4375 C-44.92515625 49.26121094 -44.6003125 50.08492187 -44.265625 50.93359375 C-43.18068448 53.1849879 -43.18068448 53.1849879 -40.859375 53.78515625 C-40.24578125 53.85605469 -39.6321875 53.92695313 -39 54 C-39.26554687 53.34773438 -39.53109375 52.69546875 -39.8046875 52.0234375 C-41.67827997 47.38732183 -43.49315006 42.77169146 -45 38 C-44.319375 37.34 -43.63875 36.68 -42.9375 36 C-40.01827866 33.08909553 -37.33531934 29.99175145 -34.6484375 26.8671875 C-31.6369509 23.45607235 -31.6369509 23.45607235 -30 22 C-29.34 22 -28.68 22 -28 22 C-27.80277344 21.44957031 -27.60554688 20.89914063 -27.40234375 20.33203125 C-25.41672671 17.03004413 -22.58178575 14.98991064 -19.5625 12.6875 C-18.63111206 11.96663208 -18.63111206 11.96663208 -17.6809082 11.23120117 C-2.9849821 0 -2.9849821 0 0 0 Z " fill="#09879E" transform="translate(230,124)"/>
<path d="M0 0 C3.63 0 7.26 0 11 0 C15.29 7.59 19.58 15.18 24 23 C24.33 15.41 24.66 7.82 25 0 C28.63 0 32.26 0 36 0 C36 15.18 36 30.36 36 46 C32.37 46 28.74 46 25 46 C24.31292969 44.75863281 23.62585938 43.51726562 22.91796875 42.23828125 C22.00785803 40.59632893 21.09769925 38.95440324 20.1875 37.3125 C19.50977539 36.08756836 19.50977539 36.08756836 18.81835938 34.83789062 C16.60754657 30.85197264 14.38275829 26.88682498 12 23 C11.97494385 23.6612085 11.9498877 24.32241699 11.92407227 25.00366211 C11.80846898 27.98182305 11.68558246 30.9596392 11.5625 33.9375 C11.52318359 34.97841797 11.48386719 36.01933594 11.44335938 37.09179688 C11.40146484 38.08115234 11.35957031 39.07050781 11.31640625 40.08984375 C11.26141968 41.46450806 11.26141968 41.46450806 11.20532227 42.86694336 C11 45 11 45 10 46 C6.7 46 3.4 46 0 46 C0 30.82 0 15.64 0 0 Z " fill="#F4F7F8" transform="translate(102,239)"/>
<path d="M0 0 C3.63 0 7.26 0 11 0 C11.33 4.95 11.66 9.9 12 15 C12.96486328 13.37578125 12.96486328 13.37578125 13.94921875 11.71875 C21.04316876 0.53770686 21.04316876 0.53770686 26.625 -0.99609375 C29.86874659 -0.94274265 32.83092974 -0.68016611 36 0 C34.64783162 2.88387779 33.10247664 5.35417975 31.1796875 7.890625 C30.64472656 8.59960938 30.10976562 9.30859375 29.55859375 10.0390625 C29.00300781 10.76867187 28.44742188 11.49828125 27.875 12.25 C27.31167969 12.99507812 26.74835938 13.74015625 26.16796875 14.5078125 C24.78151746 16.34074811 23.39212232 18.17137013 22 20 C26.045905 27.04651539 30.1998772 33.96509093 34.71484375 40.72265625 C36 43 36 43 36 46 C31.69567117 46.98322232 28.25686724 47.29689504 24 46 C19.89613366 41.83815774 17.46428142 36.22726362 15 31 C14.01 31.33 13.02 31.66 12 32 C11.93941406 32.92683594 11.87882813 33.85367188 11.81640625 34.80859375 C11.73261719 36.00613281 11.64882812 37.20367187 11.5625 38.4375 C11.48128906 39.63246094 11.40007812 40.82742188 11.31640625 42.05859375 C11 45 11 45 10 46 C6.7 46 3.4 46 0 46 C0 30.82 0 15.64 0 0 Z " fill="#F4F6F8" transform="translate(142,239)"/>
<path d="M0 0 C3.815625 -0.103125 7.63125 -0.20625 11.5625 -0.3125 C13.34636108 -0.38078003 13.34636108 -0.38078003 15.16625977 -0.45043945 C22.17540303 -0.54189641 25.82845245 0.16943361 31 5 C34.11779386 9.5258298 34.78076578 13.65228917 34 19 C32.04614079 24.34740414 29.08763713 27.45618143 24 30 C19.33091139 30.13996069 14.67201378 30.04247285 10 30 C10 35.28 10 40.56 10 46 C6.7 46 3.4 46 0 46 C0 30.82 0 15.64 0 0 Z " fill="#F5F6F6" transform="translate(19,239)"/>
<path d="M0 0 C2.475 0.495 2.475 0.495 5 1 C5.33 2.98 5.66 4.96 6 7 C51.87 7 97.74 7 145 7 C145.99 4.69 146.98 2.38 148 0 C149.32 0 150.64 0 152 0 C152.32470459 4.13998349 152.4304413 6.33999001 150.125 9.875 C146.85361549 13.14638451 144.99759117 13.12930865 140.47819519 13.15390015 C139.30469009 13.16250061 138.131185 13.17110107 136.92211914 13.17996216 C135.62806152 13.18422211 134.33400391 13.18848206 133.00073242 13.19287109 C131.62925508 13.20077148 130.25777982 13.20904039 128.88630676 13.21765137 C124.37604764 13.24387808 119.8657792 13.25917926 115.35546875 13.2734375 C113.80346483 13.27879684 112.25146097 13.28417435 110.69945717 13.28956985 C104.24417901 13.3111992 97.78890337 13.32993642 91.33359814 13.34119225 C82.07881714 13.35743496 72.82445577 13.39061944 63.56983298 13.44759309 C57.0644604 13.48627792 50.55920012 13.50582316 44.05371553 13.51111281 C40.16726938 13.51476823 36.28127071 13.52680878 32.39494896 13.55921555 C28.73814333 13.58927128 25.0820565 13.59561757 21.42515373 13.58383179 C19.4448563 13.58350555 17.46460339 13.60798781 15.48446655 13.63320923 C5.80652252 13.56509737 5.80652252 13.56509737 2.7257843 10.58853149 C0.13797621 6.70703672 -0.1013065 4.66009897 0 0 Z " fill="#F3F8F9" transform="translate(39,184)"/>
<path d="M0 0 C1.2375 0.1546875 1.2375 0.1546875 2.5 0.3125 C3.16 1.3025 3.82 2.2925 4.5 3.3125 C5.11875 2.9825 5.7375 2.6525 6.375 2.3125 C10.69953833 0.92864773 14.99962442 0.6319554 19.5 1.3125 C21.80859375 2.83203125 21.80859375 2.83203125 23.5 4.3125 C23.891875 3.6525 24.28375 2.9925 24.6875 2.3125 C26.5 0.3125 26.5 0.3125 29.0625 -0.0625 C31.5 0.3125 31.5 0.3125 33.5 2.3125 C33.17028521 5.60964793 32.8773161 6.9351839 30.5 9.3125 C29.51 9.3125 28.52 9.3125 27.5 9.3125 C27.995 10.3025 27.995 10.3025 28.5 11.3125 C29.00890436 17.41935229 28.5775461 20.44209772 24.5 25.3125 C22.4375 27.0625 22.4375 27.0625 20.5 28.3125 C19.51 28.9725 18.52 29.6325 17.5 30.3125 C17.726875 31.075625 17.95375 31.83875 18.1875 32.625 C18.5 35.3125 18.5 35.3125 17.375 37.1875 C15.5 38.3125 15.5 38.3125 12.875 38.0625 C10.5 37.3125 10.5 37.3125 9.5 36.3125 C9.20613847 32.59025401 9.35190829 31.53463757 11.5 28.3125 C10.778125 28.27125 10.05625 28.23 9.3125 28.1875 C5.33391804 26.94971895 3.89255176 24.63548855 1.5 21.3125 C0.21682108 17.46296324 0.43356363 14.36511865 0.5 10.3125 C-0.139375 10.10625 -0.77875 9.9 -1.4375 9.6875 C-3.5 8.3125 -3.5 8.3125 -4.375 5.3125 C-4.41625 4.3225 -4.4575 3.3325 -4.5 2.3125 C-2.5 0.3125 -2.5 0.3125 0 0 Z " fill="#AED6E0" transform="translate(72.5,146.6875)"/>
<path d="M0 0 C3.63 0 7.26 0 11 0 C11 11.88 11 23.76 11 36 C16.94 36 22.88 36 29 36 C29 39.3 29 42.6 29 46 C25.03069011 46.02465881 21.06140966 46.04284023 17.09204102 46.05493164 C15.74079614 46.05997057 14.38955674 46.06680177 13.03833008 46.07543945 C11.09979566 46.08752419 9.161222 46.09269828 7.22265625 46.09765625 C5.47094116 46.10551147 5.47094116 46.10551147 3.68383789 46.11352539 C1 46 1 46 0 45 C-0.0928726 43.58774954 -0.11746772 42.17091066 -0.11352539 40.75561523 C-0.11344986 39.85475693 -0.11337433 38.95389862 -0.11329651 38.02574158 C-0.10813522 37.04658279 -0.10297394 36.06742401 -0.09765625 35.05859375 C-0.0962413 34.06118668 -0.09482635 33.0637796 -0.09336853 32.03614807 C-0.08775114 28.83656876 -0.07519571 25.63705831 -0.0625 22.4375 C-0.05748724 20.27408955 -0.05292395 18.11067801 -0.04882812 15.94726562 C-0.03777606 10.63148371 -0.02049979 5.31575354 0 0 Z " fill="#F0F3F5" transform="translate(55,239)"/>
<path d="M0 0 C3.95122602 2.01153324 6.70849352 4.18082253 9 8 C9 8.66 9 9.32 9 10 C11.475 10.495 11.475 10.495 14 11 C14.125 13.875 14.125 13.875 14 17 C13.34 17.66 12.68 18.32 12 19 C10.68 19 9.36 19 8 19 C7.6596875 20.1446875 7.6596875 20.1446875 7.3125 21.3125 C5.60530964 24.80817551 4.64413886 25.58696657 1 27 C-3.45585592 27.61811416 -7.92610585 28.08728431 -12.01171875 25.9453125 C-14.14932279 24.19589321 -15.76056635 22.47886729 -17 20 C-18.65204456 19.29788106 -20.31923769 18.63028587 -22 18 C-23 17 -23 17 -23.1875 14.5625 C-23 12 -23 12 -21 10 C-19.68 10 -18.36 10 -17 10 C-16.95875 9.278125 -16.9175 8.55625 -16.875 7.8125 C-15.89439789 4.66056466 -14.57164409 2.95590851 -11.94140625 0.953125 C-8.07901393 -0.9430998 -4.16057413 -0.73740257 0 0 Z " fill="#F1F8F9" transform="translate(134,108)"/>
<path d="M0 0 C4.26781153 2.41529993 7.10124236 5.47830739 9 10 C9.74145891 15.50798046 8.56085598 18.82481611 5.4765625 23.26171875 C3.1927157 25.95037438 1.39486169 27.02071298 -2 28 C-6.73155443 28.26380969 -10.63245213 27.68984138 -14.4375 24.75 C-18.48025502 20.41143364 -19.48592197 16.98174295 -19.31640625 10.9921875 C-18.62697761 6.65134053 -16.06341931 3.93831115 -12.875 1.125 C-8.52633911 -0.57664991 -4.59375359 -0.89442243 0 0 Z " fill="#FAFBFB" transform="translate(121,55)"/>
<path d="M0 0 C3.63 0 7.26 0 11 0 C11 15.18 11 30.36 11 46 C7.7 46 4.4 46 1 46 C0 45 0 45 -0.12025452 43.17137146 C-0.11803391 42.37417191 -0.11581329 41.57697235 -0.11352539 40.75561523 C-0.11344986 39.85475693 -0.11337433 38.95389862 -0.11329651 38.02574158 C-0.10813522 37.04658279 -0.10297394 36.06742401 -0.09765625 35.05859375 C-0.0962413 34.06118668 -0.09482635 33.0637796 -0.09336853 32.03614807 C-0.08775114 28.83656876 -0.07519571 25.63705831 -0.0625 22.4375 C-0.05748724 20.27408955 -0.05292395 18.11067801 -0.04882812 15.94726562 C-0.03777606 10.63148371 -0.02049979 5.31575354 0 0 Z " fill="#F3F6F7" transform="translate(86,239)"/>
<path d="M0 0 C1.32 0 2.64 0 4 0 C3.3784847 4.07702813 2.04520941 7.27117562 0.19140625 10.9453125 C-0.38512695 12.09394775 -0.96166016 13.24258301 -1.55566406 14.42602539 C-2.18268138 15.65914984 -2.80996647 16.89213817 -3.4375 18.125 C-4.08463385 19.40665614 -4.73144078 20.6884774 -5.37792969 21.97045898 C-9.13959197 29.41371434 -12.96286462 36.82314328 -16.87963867 44.18603516 C-19.76560626 49.62138051 -22.59536095 55.08416357 -25.40625 60.55859375 C-25.8018512 61.32905533 -26.19745239 62.09951691 -26.6050415 62.89332581 C-28.59936852 66.77934172 -30.59119684 70.66662564 -32.58105469 74.55493164 C-36.61599261 82.42954931 -40.70197509 90.26439055 -45 98 C-46.32 98 -47.64 98 -49 98 C-48.38714672 94.09278379 -47.18968623 91.01628972 -45.41015625 87.4921875 C-44.87197266 86.42097656 -44.33378906 85.34976563 -43.77929688 84.24609375 C-42.92948242 82.57740234 -42.92948242 82.57740234 -42.0625 80.875 C-41.53076172 79.81667969 -40.99902344 78.75835937 -40.45117188 77.66796875 C-37.14013014 71.10799158 -33.74200398 64.59801596 -30.30859375 58.1015625 C-23.88231493 45.938646 -17.66280872 33.67062504 -11.42822266 21.40869141 C-9.9120497 18.42790957 -8.39364525 15.44827282 -6.875 12.46875 C-6.41359619 11.55951782 -5.95219238 10.65028564 -5.47680664 9.71350098 C-5.04875732 8.87411987 -4.62070801 8.03473877 -4.1796875 7.16992188 C-3.80569824 6.43447144 -3.43170898 5.699021 -3.04638672 4.94128418 C-2 3 -2 3 0 0 Z " fill="#EEF5F7" transform="translate(88,80)"/>
<path d="M0 0 C2.22900391 0.02441406 2.22900391 0.02441406 5 1 C6.7035545 3.54361622 8.01819119 5.87341601 9.3359375 8.609375 C9.73208755 9.39494781 10.12823761 10.18052063 10.53639221 10.98989868 C11.83242848 13.56870752 13.10339123 16.15907154 14.375 18.75 C15.26967795 20.53951928 16.16625891 22.32808835 17.06469727 24.11572266 C18.87196062 27.71512429 20.671227 31.31834186 22.46435547 34.92480469 C25.88016787 41.78082471 29.40348512 48.57939663 32.9375 55.375 C33.53038818 56.52250732 34.12327637 57.67001465 34.73413086 58.85229492 C37.41890095 64.04775006 40.11757138 69.23498145 42.85862732 74.40093994 C43.79486416 76.16597095 44.72766588 77.93282271 45.66040039 79.69970703 C46.81406233 81.88277333 47.97433332 84.06236455 49.14233398 86.23779297 C49.65094971 87.20217285 50.15956543 88.16655273 50.68359375 89.16015625 C51.13275146 90.00199463 51.58190918 90.84383301 52.04467773 91.71118164 C53 94 53 94 53 98 C50.65454102 97.77001953 50.65454102 97.77001953 48 97 C46.61303711 95.14013672 46.61303711 95.14013672 45.52734375 92.6796875 C45.10952637 91.76461426 44.69170898 90.84954102 44.26123047 89.90673828 C43.82439941 88.90626465 43.38756836 87.90579102 42.9375 86.875 C41.963199 84.74315942 40.98523304 82.61299061 40.00390625 80.484375 C39.5052002 79.39576172 39.00649414 78.30714844 38.49267578 77.18554688 C36.26100749 72.42290247 33.83476472 67.77294526 31.375 63.125 C30.37718138 61.23199363 29.37980459 59.33875431 28.3828125 57.4453125 C27.85075195 56.43500977 27.31869141 55.42470703 26.77050781 54.38378906 C24.74449282 50.51167546 22.74058627 46.62860628 20.7421875 42.7421875 C20.37157196 42.0214505 20.00095642 41.3007135 19.61911011 40.55813599 C18.13931715 37.67911324 16.66022501 34.79973348 15.18280029 31.91949463 C14.14888484 29.90415992 13.11370779 27.88947838 12.078125 25.875 C11.74523468 25.22602753 11.41234436 24.57705505 11.06936646 23.90841675 C9.31831142 20.50774573 7.53572584 17.12809987 5.70507812 13.76953125 C5.14708527 12.74206787 5.14708527 12.74206787 4.57781982 11.69384766 C3.86564708 10.38709118 3.14816874 9.08320783 2.42462158 7.78271484 C0.88865948 4.96288085 0 3.26602739 0 0 Z " fill="#EEF5F7" transform="translate(138,80)"/>
<path d="M0 0 C0.33 11.22 0.66 22.44 1 34 C-0.485 34.495 -0.485 34.495 -2 35 C-2 31.37 -2 27.74 -2 24 C-7.94 24 -13.88 24 -20 24 C-20 18.39 -20 12.78 -20 7 C-17.04322789 5.82923771 -14.08473257 4.66323329 -11.125 3.5 C-10.28324219 3.16613281 -9.44148438 2.83226562 -8.57421875 2.48828125 C-7.76855469 2.17246094 -6.96289062 1.85664063 -6.1328125 1.53125 C-5.38918457 1.23798828 -4.64555664 0.94472656 -3.87939453 0.64257812 C-2 0 -2 0 0 0 Z " fill="#0D8CA1" transform="translate(86,251)"/>
<path d="M0 0 C3.6875 0.3125 3.6875 0.3125 6.0625 2.125 C10.12084313 7.58815421 9.20791224 14.82965034 8.6875 21.3125 C7.78696939 24.39383366 7.16709628 25.08722129 4.6875 27.3125 C1.1875 28.4375 1.1875 28.4375 -2.3125 28.3125 C-5.25822605 26.14196501 -6.15310941 24.79067177 -7.3125 21.3125 C-7.45898082 19.04486426 -7.5334626 16.77217634 -7.5625 14.5 C-7.58828125 13.29730469 -7.6140625 12.09460938 -7.640625 10.85546875 C-7.13024209 5.34454851 -5.84587955 0.55149807 0 0 Z " fill="#0773A7" transform="translate(195.3125,247.6875)"/>
<path d="M0 0 C4.99503071 0.4913145 6.31841769 1.88091769 9.8125 5.375 C11.26397903 8.27795805 11.18489025 10.14761779 10.8125 13.375 C8.80184744 16.70514331 7.54981173 18.74452397 3.875 20.078125 C0.32054073 20.6974626 -1.71436211 20.58071213 -5.0625 19.125 C-8.36305107 16.40689912 -9.14229622 14.77537637 -9.625 10.5 C-9.55869908 6.89985999 -9.22267128 6.41738591 -6.75 3.4375 C-5.904375 2.756875 -5.05875 2.07625 -4.1875 1.375 C-3.1875 0.375 -3.1875 0.375 0 0 Z " fill="#FBFDFD" transform="translate(86.1875,151.625)"/>
<path d="M0 0 C4.26781153 2.41529993 7.10124236 5.47830739 9 10 C9.74145891 15.50798046 8.56085598 18.82481611 5.4765625 23.26171875 C3.1927157 25.95037438 1.39486169 27.02071298 -2 28 C-6.73155443 28.26380969 -10.63245213 27.68984138 -14.4375 24.75 C-18.48025502 20.41143364 -19.48592197 16.98174295 -19.31640625 10.9921875 C-18.62697761 6.65134053 -16.06341931 3.93831115 -12.875 1.125 C-8.52633911 -0.57664991 -4.59375359 -0.89442243 0 0 Z M-14 8 C-15.57455739 11.14911479 -15.34799118 13.52008816 -15 17 C-13.06119938 20.64186102 -13.06119938 20.64186102 -10 23 C-5.41871313 23.96954536 -1.51110434 23.88454888 2.5625 21.5 C4.54598787 18.05045588 5.21345196 14.97653093 5 11 C3.42569236 7.37909244 2.31117074 6.20744716 -1 4 C-6.87188456 3.43175311 -9.70950255 3.57948747 -14 8 Z " fill="#B1D9E0" transform="translate(121,55)"/>
<path d="M0 0 C3.73716178 0.87853713 5.13010387 2.29902003 7.16015625 5.5078125 C8.19961479 10.25839573 7.82987325 13.44922757 5.22265625 17.5703125 C1.10623702 20.17457773 -2.09383445 20.55485253 -6.83984375 19.5078125 C-9.90234375 17.5078125 -9.90234375 17.5078125 -11.83984375 14.5078125 C-12.57286273 9.88979295 -12.55549898 6.91821201 -9.90234375 3.0078125 C-6.32530335 0.08777952 -4.5043027 -0.34590638 0 0 Z " fill="#FCFDFD" transform="translate(131.83984375,111.4921875)"/>
<path d="M0 0 C1.2375 0.1546875 1.2375 0.1546875 2.5 0.3125 C3.16 1.3025 3.82 2.2925 4.5 3.3125 C5.34304687 3.06693359 5.34304687 3.06693359 6.203125 2.81640625 C8.63059056 2.28385003 10.76889681 2.21351319 13.25 2.25 C14.04921875 2.25902344 14.8484375 2.26804688 15.671875 2.27734375 C16.27515625 2.28894531 16.8784375 2.30054688 17.5 2.3125 C17.5 2.6425 17.5 2.9725 17.5 3.3125 C16.89671875 3.48265625 16.2934375 3.6528125 15.671875 3.828125 C9.08509977 5.6351057 9.08509977 5.6351057 4.5 10.3125 C3.62137644 15.29699905 3.75237772 19.02349607 6.3125 23.4375 C10.97122337 26.17792551 15.22221768 25.72843731 20.5 25.3125 C19.5 28.3125 19.5 28.3125 17.5 30.3125 C17.685625 31.116875 17.87125 31.92125 18.0625 32.75 C18.5 35.3125 18.5 35.3125 17.375 37.1875 C15.5 38.3125 15.5 38.3125 12.875 38.0625 C10.5 37.3125 10.5 37.3125 9.5 36.3125 C9.20613847 32.59025401 9.35190829 31.53463757 11.5 28.3125 C10.778125 28.27125 10.05625 28.23 9.3125 28.1875 C5.33391804 26.94971895 3.89255176 24.63548855 1.5 21.3125 C0.21682108 17.46296324 0.43356363 14.36511865 0.5 10.3125 C-0.139375 10.10625 -0.77875 9.9 -1.4375 9.6875 C-3.5 8.3125 -3.5 8.3125 -4.375 5.3125 C-4.41625 4.3225 -4.4575 3.3325 -4.5 2.3125 C-2.5 0.3125 -2.5 0.3125 0 0 Z " fill="#EBF4F6" transform="translate(72.5,146.6875)"/>
<path d="M0 0 C6.27 2.97 12.54 5.94 19 9 C18.67 12.3 18.34 15.6 18 19 C13.64029169 17.65150163 9.68658562 15.95092154 5.625 13.875 C4.56539063 13.33617187 3.50578125 12.79734375 2.4140625 12.2421875 C1.61742188 11.83226562 0.82078125 11.42234375 0 11 C0 7.37 0 3.74 0 0 Z " fill="#02749D" transform="translate(0,228)"/>
<path d="M0 0 C0.02505615 0.6297876 0.0501123 1.2595752 0.07592773 1.90844727 C0.19278427 4.79329341 0.31510021 7.67788395 0.4375 10.5625 C0.47681641 11.55314453 0.51613281 12.54378906 0.55664062 13.56445312 C0.78172346 18.77598637 1.14105239 23.85353238 2 29 C-1.40967302 24.97251925 -4.08703775 20.71974031 -6.75 16.1875 C-7.36681641 15.14819336 -7.36681641 15.14819336 -7.99609375 14.08789062 C-9.0007858 12.3939331 -10.00086825 10.69724304 -11 9 C-5.15853659 0 -5.15853659 0 0 0 Z " fill="#0775A8" transform="translate(177,255)"/>
<path d="M0 0 C3.95122602 2.01153324 6.70849352 4.18082253 9 8 C9 8.66 9 9.32 9 10 C8.34 10 7.68 10 7 10 C7 10.66 7 11.32 7 12 C6.34 12 5.68 12 5 12 C4.731875 11.21625 4.46375 10.4325 4.1875 9.625 C3.15185568 6.71885077 3.15185568 6.71885077 0 5 C-3.0675015 4.46332847 -5.93063885 4.47366551 -9 5 C-11.7286104 7.12964714 -12.80771216 8.54653015 -13.265625 12.0078125 C-13.33730627 15.24541649 -13.0245898 17.92623061 -12 21 C-7.96224575 22.34591808 -4.22219878 22.57366831 0 22 C2.48231727 20.26989612 2.48231727 20.26989612 4 18 C4.66 17.34 5.32 16.68 6 16 C5.875 18.25 5.875 18.25 5 21 C1.78384224 23.83328184 -0.2947709 24.91339292 -4.5625 25.4375 C-8.2193473 24.97208307 -10.10086998 24.23647173 -13 22 C-15.35119399 18.47320901 -15.21443452 16.97120515 -15.125 12.8125 C-15.10695313 11.72582031 -15.08890625 10.63914062 -15.0703125 9.51953125 C-15.04710938 8.68808594 -15.02390625 7.85664062 -15 7 C-15.99 7.495 -15.99 7.495 -17 8 C-13.87907642 0.05583088 -7.79282641 -1.24885039 0 0 Z " fill="#A9D4DF" transform="translate(134,108)"/>
<path d="M0 0 C0.33 0 0.66 0 1 0 C0.78955338 9.68054461 0.78955338 9.68054461 -2.4375 13.5625 C-6.32721611 17.26247386 -8.52417589 17.15142156 -13.66796875 17.1015625 C-16.50194914 16.97813957 -19.22291369 16.56965873 -22 16 C-22 14.35 -22 12.7 -22 11 C-21.13117187 10.90203125 -20.26234375 10.8040625 -19.3671875 10.703125 C-10.39893509 9.66527946 -10.39893509 9.66527946 -3 5 C-1.21037181 2.38142305 -1.21037181 2.38142305 0 0 Z " fill="#03768B" transform="translate(52,259)"/>
<path d="M0 0 C1.588125 -0.061875 3.17625 -0.12375 4.8125 -0.1875 C6.15248047 -0.23970703 6.15248047 -0.23970703 7.51953125 -0.29296875 C10 0 10 0 11.80078125 1.32421875 C13.65747311 3.91874907 13.38675552 5.90595582 13 9 C11.80078125 10.67578125 11.80078125 10.67578125 10 12 C7.51953125 12.29296875 7.51953125 12.29296875 4.8125 12.1875 C3.224375 12.125625 1.63625 12.06375 0 12 C0 8.04 0 4.08 0 0 Z " fill="#06467A" transform="translate(29,248)"/>
<path d="M0 0 C0 9.24 0 18.48 0 28 C-1.65 28.33 -3.3 28.66 -5 29 C-5 20.09 -5 11.18 -5 2 C-1 0 -1 0 0 0 Z " fill="#0C8CA1" transform="translate(102,243)"/>
<path d="M0 0 C3.6875 0.3125 3.6875 0.3125 6.125 1.875 C8.2123128 5.13120797 7.9790423 7.52245016 7.6875 11.3125 C7.006875 10.961875 6.32625 10.61125 5.625 10.25 C1.8694022 9.05140496 -0.51353588 9.32758338 -4.3125 10.3125 C-6.27537824 12.22988855 -6.27537824 12.22988855 -7.3125 14.3125 C-7.62799088 9.0543187 -7.01266294 5.84877373 -4.3125 1.3125 C-3.3125 0.3125 -3.3125 0.3125 0 0 Z " fill="#054282" transform="translate(195.3125,247.6875)"/>
<path d="M0 0 C-0.49100648 4.71193942 -2.43513267 7.22407057 -5.4375 10.8125 C-6.24058594 11.78832031 -7.04367188 12.76414062 -7.87109375 13.76953125 C-8.92490234 14.87361328 -8.92490234 14.87361328 -10 16 C-10.66 16 -11.32 16 -12 16 C-12.66 14.68 -13.32 13.36 -14 12 C-12.73452987 10.37081993 -11.46242272 8.74679358 -10.1875 7.125 C-9.47980469 6.22007812 -8.77210938 5.31515625 -8.04296875 4.3828125 C-5.45417079 1.3633732 -4.05709657 0 0 0 Z " fill="#094785" transform="translate(177,247)"/>
<path d="M0 0 C2.5 0.25 2.5 0.25 4.5 2.25 C4.17028521 5.54714793 3.8773161 6.8726839 1.5 9.25 C-3.05555556 8.69444444 -3.05555556 8.69444444 -4.5 7.25 C-4.6875 4.8125 -4.6875 4.8125 -4.5 2.25 C-2.5 0.25 -2.5 0.25 0 0 Z " fill="#E8F3F6" transform="translate(130.5,88.75)"/>
<path d="M0 0 C2.5 0.25 2.5 0.25 4.5 2.25 C4.17028521 5.54714793 3.8773161 6.8726839 1.5 9.25 C-3.05555556 8.69444444 -3.05555556 8.69444444 -4.5 7.25 C-4.6875 4.8125 -4.6875 4.8125 -4.5 2.25 C-2.5 0.25 -2.5 0.25 0 0 Z " fill="#E6F1F4" transform="translate(57.5,175.75)"/>
<path d="M0 0 C1.2375 0.1546875 1.2375 0.1546875 2.5 0.3125 C4.5 3.3125 4.5 3.3125 4.25 5.375 C3.5 7.3125 3.5 7.3125 1.5 9.3125 C-3.05555556 8.75694444 -3.05555556 8.75694444 -4.5 7.3125 C-4.6875 4.875 -4.6875 4.875 -4.5 2.3125 C-2.5 0.3125 -2.5 0.3125 0 0 Z " fill="#EAF4F7" transform="translate(115.5,175.6875)"/>
<path d="M0 0 C2.5 0.25 2.5 0.25 4.5 2.25 C4.17028521 5.54714793 3.8773161 6.8726839 1.5 9.25 C-1.125 8.875 -1.125 8.875 -3.5 8.25 C-4.125 5.375 -4.125 5.375 -4.5 2.25 C-2.5 0.25 -2.5 0.25 0 0 Z " fill="#E8F2F5" transform="translate(159.5,146.75)"/>
<path d="M0 0 C2.5 0.25 2.5 0.25 4.5 2.25 C4.17028521 5.54714793 3.8773161 6.8726839 1.5 9.25 C-1.125 8.875 -1.125 8.875 -3.5 8.25 C-4.125 5.375 -4.125 5.375 -4.5 2.25 C-2.5 0.25 -2.5 0.25 0 0 Z " fill="#EAF4F7" transform="translate(130.5,146.75)"/>
<path d="M0 0 C3.125 0.375 3.125 0.375 6 1 C6.6875 3.3125 6.6875 3.3125 7 6 C5.875 7.875 5.875 7.875 4 9 C-0.42105263 8.57894737 -0.42105263 8.57894737 -2 7 C-2.1875 4.5625 -2.1875 4.5625 -2 2 C-1.34 1.34 -0.68 0.68 0 0 Z " fill="#EAF4F7" transform="translate(84,118)"/>
<path d="M0 0 C2.5 0.25 2.5 0.25 4.5 2.25 C4.17028521 5.54714793 3.8773161 6.8726839 1.5 9.25 C-1.125 8.875 -1.125 8.875 -3.5 8.25 C-4.125 5.375 -4.125 5.375 -4.5 2.25 C-2.5 0.25 -2.5 0.25 0 0 Z " fill="#EBF5F7" transform="translate(101.5,88.75)"/>
<path d="M0 0 C2.4375 0.1875 2.4375 0.1875 3.4375 1.1875 C3.625 4.125 3.625 4.125 3.4375 7.1875 C2.7775 7.8475 2.1175 8.5075 1.4375 9.1875 C-3.11805556 8.63194444 -3.11805556 8.63194444 -4.5625 7.1875 C-4.75 4.75 -4.75 4.75 -4.5625 2.1875 C-2.5625 0.1875 -2.5625 0.1875 0 0 Z " fill="#EFF7F9" transform="translate(144.5625,175.8125)"/>
<path d="M0 0 C2.5625 0.1875 2.5625 0.1875 4.5625 2.1875 C4.00694444 6.74305556 4.00694444 6.74305556 2.5625 8.1875 C0.125 8.4375 0.125 8.4375 -2.4375 8.1875 C-4.4375 5.1875 -4.4375 5.1875 -4.125 3.0625 C-3.12124957 0.32499884 -2.99341211 0.23026247 0 0 Z " fill="#F4F9FA" transform="translate(101.4375,146.8125)"/>
<path d="M0 0 C2.4375 0.1875 2.4375 0.1875 3.4375 1.1875 C3.5625 4.1875 3.5625 4.1875 3.4375 7.1875 C2.4375 8.1875 2.4375 8.1875 -0.5625 8.3125 C-3.5625 8.1875 -3.5625 8.1875 -4.5625 7.1875 C-4.75 4.75 -4.75 4.75 -4.5625 2.1875 C-2.5625 0.1875 -2.5625 0.1875 0 0 Z " fill="#F2F7F8" transform="translate(173.5625,175.8125)"/>
<path d="M0 0 C0 6.6 0 13.2 0 20 C-0.66 20 -1.32 20 -2 20 C-2.93395519 17.19813442 -2.97391508 15.20441005 -2.875 12.1875 C-2.79282412 7.80752538 -4.05491042 4.89017915 -6 1 C-3.92446352 0.4465236 -2.15634036 0 0 0 Z " fill="#0B79A5" transform="translate(55,242)"/>
<path d="M0 0 C0.33 0 0.66 0 1 0 C1 2.64 1 5.28 1 8 C2.258125 7.938125 3.51625 7.87625 4.8125 7.8125 C8.72231986 7.79173989 8.72231986 7.79173989 11 9.5 C11.33 9.995 11.66 10.49 12 11 C9.47524538 12.26237731 7.68799534 12.09856404 4.875 12.0625 C3.26625 12.041875 1.6575 12.02125 0 12 C0 8.04 0 4.08 0 0 Z " fill="#2C7F9B" transform="translate(29,248)"/>
<path d="M0 0 C0.66 0.33 1.32 0.66 2 1 C-3.14618834 8.63408072 -3.14618834 8.63408072 -7.69140625 9.53125 C-10.17127693 9.50302957 -12.54667751 9.3554109 -15 9 C-11.94216092 6.59430669 -8.77542004 4.63810385 -5.375 2.75 C-4.41335937 2.20859375 -3.45171875 1.6671875 -2.4609375 1.109375 C-1.64882812 0.74328125 -0.83671875 0.3771875 0 0 Z " fill="#1092A2" transform="translate(151,183)"/>
<path d="M0 0 C0 0.99 0 1.98 0 3 C-1.423125 3.804375 -1.423125 3.804375 -2.875 4.625 C-6.77332254 7.58772513 -7.00800017 9.5192167 -7.7734375 14.171875 C-7.84820312 14.77515625 -7.92296875 15.3784375 -8 16 C-8.99 15.34 -9.98 14.68 -11 14 C-10.58675744 8.7311573 -9.77055562 5.77055562 -6 2 C-3.77661117 0.62673043 -2.60417425 0 0 0 Z " fill="#E2F0F2" transform="translate(113,55)"/>
<path d="M0 0 C2.97 0.33 5.94 0.66 9 1 C8 4 8 4 6 5 C4.00039988 5.039992 1.99952758 5.04346799 0 5 C0 3.33333333 0 1.66666667 0 0 Z " fill="#DAEDF0" transform="translate(113,78)"/>
<path d="M0 0 C4.29 0.33 8.58 0.66 13 1 C11 3 11 3 8.3984375 3.1953125 C7.40070312 3.17210937 6.40296875 3.14890625 5.375 3.125 C3.87066406 3.09792969 3.87066406 3.09792969 2.3359375 3.0703125 C1.56507812 3.04710937 0.79421875 3.02390625 0 3 C0 2.01 0 1.02 0 0 Z " fill="#006396" transform="translate(30,275)"/>
<path d="M0 0 C0.33 0.66 0.66 1.32 1 2 C0.00390625 4.3828125 0.00390625 4.3828125 -1.4375 7.125 C-1.91058594 8.03507813 -2.38367188 8.94515625 -2.87109375 9.8828125 C-3.24363281 10.58148438 -3.61617188 11.28015625 -4 12 C-4.33 12 -4.66 12 -5 12 C-5.33 9.36 -5.66 6.72 -6 4 C-5.195625 3.525625 -4.39125 3.05125 -3.5625 2.5625 C-1.15246512 1.23099846 -1.15246512 1.23099846 0 0 Z " fill="#4DA4BD" transform="translate(106,152)"/>
<path d="M0 0 C0.33 0 0.66 0 1 0 C1.50227431 5.27388024 0.32894202 7.91015695 -3 12 C-3.99 12.33 -4.98 12.66 -6 13 C-4.31326082 8.50202887 -2.18326108 4.27113698 0 0 Z " fill="#EFF6F8" transform="translate(128,68)"/>
<path d="M0 0 C0.66 0.33 1.32 0.66 2 1 C0.74160485 4.77518545 -0.55903808 5.19759138 -4 7 C-4.99 7.33 -5.98 7.66 -7 8 C-5.50902342 4.2047869 -3.24299151 2.38957269 0 0 Z " fill="#D8EBF0" transform="translate(124,108)"/>
<path d="M0 0 C0.33 0.66 0.66 1.32 1 2 C-1.95664519 3.4783226 -4.74229737 3.06032783 -8 3 C-8 2.34 -8 1.68 -8 1 C-5.29120665 -0.35439668 -2.99066732 -0.06501451 0 0 Z " fill="#1179A4" transform="translate(40,257)"/>
<path d="M0 0 C0 0.99 0 1.98 0 3 C-4.455 4.485 -4.455 4.485 -9 6 C-3.15384615 0 -3.15384615 0 0 0 Z " fill="#D7EBEE" transform="translate(113,55)"/>
<path d="M0 0 C2.64 0 5.28 0 8 0 C8 0.99 8 1.98 8 3 C5.6568787 2.74438677 3.32156597 2.40729228 1 2 C0.67 1.34 0.34 0.68 0 0 Z " fill="#048399" transform="translate(10,269)"/>
<path d="M0 0 C1.60031344 3.20062687 0.03173691 5.72271806 -1 9 C-1.66 8.67 -2.32 8.34 -3 8 C-2.45276317 4.62537285 -1.9451 2.91765 0 0 Z " fill="#1069A0" transform="translate(214,271)"/>
</svg>
